<?xml version="1.0" encoding="UTF-8"?>
<svg width="165px" height="37px" viewBox="0 0 165 37" version="1.1" xmlns="http://www.w3.org/2000/svg" xmlns:xlink="http://www.w3.org/1999/xlink">
    <title>Group</title>
    <defs>
        <linearGradient x1="21.1294963%" y1="53.4526424%" x2="97.2306471%" y2="52.8670324%" id="linearGradient-1">
            <stop stop-color="#0080B8" offset="0%"></stop>
            <stop stop-color="#D8D8D8" offset="100%"></stop>
        </linearGradient>
    </defs>
    <g id="Symbols" stroke="none" stroke-width="1" fill="none" fill-rule="evenodd">
        <g id="Header" transform="translate(-63.000000, -66.000000)">
            <g id="Group" transform="translate(63.000000, 66.000000)">
                <path d="M5.244,36 L7.958,25.604 C8.096,25.006 8.24166667,24.4348333 8.395,23.8905 C8.54833333,23.3461667 8.68633333,22.775 8.809,22.177 L8.809,22.177 L8.901,22.177 C9.02366667,22.775 9.154,23.3461667 9.292,23.8905 C9.43,24.4348333 9.568,25.006 9.706,25.604 L9.706,25.604 L12.466,36 L13.639,36 L17.02,20.843 L15.985,20.843 L14.076,29.767 C13.9073333,30.595 13.7425,31.4191667 13.5815,32.2395 L13.337125,33.472875 L13.337125,33.472875 L13.087,34.712 L12.995,34.712 C12.7803333,33.884 12.5771667,33.0598333 12.3855,32.2395 C12.1938333,31.4191667 11.9906667,30.595 11.776,29.767 L11.776,29.767 L9.407,20.843 L8.326,20.843 L5.957,29.767 C5.74233333,30.595 5.53916667,31.4191667 5.3475,32.2395 C5.15583333,33.0598333 4.968,33.884 4.784,34.712 L4.784,34.712 L4.692,34.712 C4.52333333,33.884 4.35083333,33.0598333 4.1745,32.2395 L3.912875,31.006125 L3.912875,31.006125 L3.657,29.767 L1.748,20.843 L0.644,20.843 L4.094,36 L5.244,36 Z M19.6091429,36 L21.4031429,30.802 L27.4061429,30.802 L29.1771429,36 L30.2811429,36 L24.9451429,20.843 L23.8871429,20.843 L18.5511429,36 L19.6091429,36 Z M27.1071429,29.905 L21.7251429,29.905 L22.6911429,27.076 C22.9978095,26.1713333 23.2891429,25.305 23.5651429,24.477 C23.8411429,23.649 24.1094762,22.7673333 24.3701429,21.832 L24.3701429,21.832 L24.4621429,21.832 C24.7228095,22.7673333 24.9911429,23.649 25.2671429,24.477 C25.5431429,25.305 25.8344762,26.1713333 26.1411429,27.076 L26.1411429,27.076 L27.1071429,29.905 Z M37.1022857,36 L42.0702857,20.843 L40.9892857,20.843 L38.1832857,29.698 C38.0452857,30.158 37.911119,30.595 37.7807857,31.009 C37.6504524,31.423 37.5239524,31.8331667 37.4012857,32.2395 L37.2144107,32.851875 L37.2144107,32.851875 L37.0217857,33.47 C36.8914524,33.884 36.749619,34.321 36.5962857,34.781 L36.5962857,34.781 L36.5042857,34.781 C36.197619,33.861 35.9254524,33.0138333 35.6877857,32.2395 C35.450119,31.4651667 35.185619,30.618 34.8942857,29.698 L34.8942857,29.698 L32.0882857,20.843 L30.9612857,20.843 L35.9752857,36 L37.1022857,36 Z M53.5834286,36 L53.5834286,35.08 L46.1084286,35.08 L46.1084286,28.41 L52.1804286,28.41 L52.1804286,27.49 L46.1084286,27.49 L46.1084286,21.763 L53.3534286,21.763 L53.3534286,20.843 L45.0504286,20.843 L45.0504286,36 L53.5834286,36 Z M63.8677143,36 L63.8677143,29.491 L66.7197143,29.491 C68.4217143,29.491 69.7480476,29.1268333 70.6987143,28.3985 C71.649381,27.6701667 72.1247143,26.5623333 72.1247143,25.075 C72.1247143,24.293 71.9982143,23.6336667 71.7452143,23.097 C71.4922143,22.5603333 71.131881,22.1233333 70.6642143,21.786 C70.1965476,21.4486667 69.6215476,21.2071667 68.9392143,21.0615 C68.256881,20.9158333 67.486381,20.843 66.6277143,20.843 L66.6277143,20.843 L62.8097143,20.843 L62.8097143,36 L63.8677143,36 Z M66.4667143,28.594 L63.8677143,28.594 L63.8677143,21.74 L66.3747143,21.74 C67.9387143,21.74 69.107881,21.9776667 69.8822143,22.453 C70.6565476,22.9283333 71.0437143,23.8023333 71.0437143,25.075 C71.0437143,26.317 70.6680476,27.214 69.9167143,27.766 C69.165381,28.318 68.015381,28.594 66.4667143,28.594 L66.4667143,28.594 Z M84.1438571,36 L84.1438571,35.08 L77.1518571,35.08 L77.1518571,20.843 L76.0938571,20.843 L76.0938571,36 L84.1438571,36 Z M91.977,36.276 C92.6363333,36.276 93.2726667,36.1801667 93.886,35.9885 C94.4993333,35.7968333 95.0436667,35.4671667 95.519,34.9995 C95.9943333,34.5318333 96.3776667,33.907 96.669,33.125 C96.9603333,32.343 97.106,31.3616667 97.106,30.181 L97.106,30.181 L97.106,20.843 L96.117,20.843 L96.117,30.066 C96.117,31.078 96.002,31.9175 95.772,32.5845 C95.542,33.2515 95.2391667,33.7881667 94.8635,34.1945 C94.4878333,34.6008333 94.0508333,34.8883333 93.5525,35.057 C93.0541667,35.2256667 92.529,35.31 91.977,35.31 C91.4403333,35.31 90.9305,35.2256667 90.4475,35.057 C89.9645,34.8883333 89.539,34.6008333 89.171,34.1945 C88.803,33.7881667 88.5078333,33.2515 88.2855,32.5845 C88.0631667,31.9175 87.952,31.078 87.952,30.066 L87.952,30.066 L87.952,20.843 L86.894,20.843 L86.894,30.181 C86.894,31.3616667 87.0358333,32.343 87.3195,33.125 C87.6031667,33.907 87.9826667,34.5318333 88.458,34.9995 C88.9333333,35.4671667 89.4776667,35.7968333 90.091,35.9885 C90.7043333,36.1801667 91.333,36.276 91.977,36.276 Z M103.168143,36 L103.168143,26.041 C103.168143,25.4123333 103.15281,24.7338333 103.122143,24.0055 C103.091476,23.2771667 103.06081,22.591 103.030143,21.947 L103.030143,21.947 L103.122143,21.947 L104.318143,25.328 L107.607143,34.344 L108.527143,34.344 L111.793143,25.328 L112.966143,21.947 L113.058143,21.947 C113.027476,22.591 112.99681,23.2771667 112.966143,24.0055 C112.935476,24.7338333 112.920143,25.4123333 112.920143,26.041 L112.920143,26.041 L112.920143,36 L113.955143,36 L113.955143,20.843 L112.437143,20.843 L109.286143,29.744 C109.08681,30.296 108.895143,30.8518333 108.711143,31.4115 C108.527143,31.9711667 108.335476,32.5346667 108.136143,33.102 L108.136143,33.102 L108.044143,33.102 C107.84481,32.5346667 107.645476,31.9711667 107.446143,31.4115 C107.24681,30.8518333 107.047476,30.296 106.848143,29.744 L106.848143,29.744 L103.674143,20.843 L102.179143,20.843 L102.179143,36 L103.168143,36 Z M123.467286,36 C124.325952,36 125.100286,35.908 125.790286,35.724 C126.480286,35.54 127.070619,35.264 127.561286,34.896 C128.051952,34.528 128.431452,34.068 128.699786,33.516 C128.968119,32.964 129.102286,32.32 129.102286,31.584 C129.102286,30.526 128.803286,29.6941667 128.205286,29.0885 C127.607286,28.4828333 126.817619,28.0956667 125.836286,27.927 L125.836286,27.927 L125.836286,27.835 C126.602952,27.605 127.185619,27.1948333 127.584286,26.6045 C127.982952,26.0141667 128.182286,25.3203333 128.182286,24.523 C128.182286,23.2503333 127.729952,22.3188333 126.825286,21.7285 C125.920619,21.1381667 124.701619,20.843 123.168286,20.843 L123.168286,20.843 L119.074286,20.843 L119.074286,36 L123.467286,36 Z M122.754286,27.513 L120.132286,27.513 L120.132286,21.717 L122.869286,21.717 C124.264619,21.717 125.322619,21.9355 126.043286,22.3725 C126.763952,22.8095 127.124286,23.5646667 127.124286,24.638 C127.124286,25.5273333 126.783119,26.2288333 126.100786,26.7425 C125.418452,27.2561667 124.302952,27.513 122.754286,27.513 L122.754286,27.513 Z M123.191286,35.126 L120.132286,35.126 L120.132286,28.387 L123.191286,28.387 C124.755286,28.387 125.958952,28.6476667 126.802286,29.169 C127.645619,29.6903333 128.067286,30.503 128.067286,31.607 C128.067286,32.8183333 127.634119,33.7076667 126.767786,34.275 C125.901452,34.8423333 124.709286,35.126 123.191286,35.126 L123.191286,35.126 Z M134.083429,36 L134.083429,20.843 L133.025429,20.843 L133.025429,36 L134.083429,36 Z M140.214571,36 L140.214571,26.593 C140.214571,25.857 140.199238,25.1401667 140.168571,24.4425 C140.137905,23.7448333 140.107238,23.028 140.076571,22.292 L140.076571,22.292 L140.168571,22.292 L141.870571,25.305 L148.264571,36 L149.368571,36 L149.368571,20.843 L148.356571,20.843 L148.356571,30.135 C148.356571,30.871 148.371905,31.607 148.402571,32.343 L148.402571,32.343 L148.494571,34.551 L148.402571,34.551 L146.700571,31.538 L140.306571,20.843 L139.202571,20.843 L139.202571,36 L140.214571,36 Z M160.030714,36.276 C161.027381,36.276 161.905214,36.115 162.664214,35.793 C163.423214,35.471 164.040381,35.057 164.515714,34.551 L164.515714,34.551 L164.515714,28.548 L159.869714,28.548 L159.869714,29.445 L163.503714,29.445 L163.503714,34.16 C163.135714,34.528 162.648881,34.8116667 162.043214,35.011 C161.437548,35.2103333 160.789714,35.31 160.099714,35.31 C159.241048,35.31 158.470548,35.1451667 157.788214,34.8155 C157.105881,34.4858333 156.530881,34.022 156.063214,33.424 C155.595548,32.826 155.239048,32.1015 154.993714,31.2505 C154.748381,30.3995 154.625714,29.445 154.625714,28.387 C154.625714,27.329 154.756048,26.3783333 155.016714,25.535 C155.277381,24.6916667 155.649214,23.9748333 156.132214,23.3845 C156.615214,22.7941667 157.201714,22.338 157.891714,22.016 C158.581714,21.694 159.363714,21.533 160.237714,21.533 C161.065714,21.533 161.755714,21.6863333 162.307714,21.993 C162.859714,22.2996667 163.335048,22.6676667 163.733714,23.097 L163.733714,23.097 L164.354714,22.384 C164.155381,22.1693333 163.921548,21.9546667 163.653214,21.74 C163.384881,21.5253333 163.082048,21.3298333 162.744714,21.1535 C162.407381,20.9771667 162.027881,20.8353333 161.606214,20.728 C161.184548,20.6206667 160.720714,20.567 160.214714,20.567 C159.218048,20.567 158.305714,20.7471667 157.477714,21.1075 C156.649714,21.4678333 155.944381,21.9891667 155.361714,22.6715 C154.779048,23.3538333 154.326714,24.178 154.004714,25.144 C153.682714,26.11 153.521714,27.191 153.521714,28.387 C153.521714,29.5983333 153.678881,30.6908333 153.993214,31.6645 C154.307548,32.6381667 154.748381,33.4661667 155.315714,34.1485 C155.883048,34.8308333 156.565381,35.356 157.362714,35.724 C158.160048,36.092 159.049381,36.276 160.030714,36.276 Z" id="WAVEPLUMBING" fill="#77B1CA" fill-rule="nonzero"></path>
                <path d="M52.5446423,17.9165114 L-4.51194637e-13,17.9165114 C7.95035473,16.0950671 14.7508648,13.1156276 20.4015301,8.97819301 C26.0521955,4.84075838 31.6539579,2.14194624 37.2068175,0.881756585 C41.8598641,1.97619698e-14 45.8784271,-0.220439146 49.2625065,0.220439146 C52.646586,0.661317439 55.3094106,1.71084853 57.2509804,3.36903241 C53.8817067,3.18536049 51.2188821,3.36442028 49.2625065,3.90621176 C46.3279432,4.718899 45.1308176,5.68366723 44.3735753,8.07727523 C43.616333,10.4708832 43.7303139,14.942437 46.3279432,16.1111282 C47.1816097,16.4951987 49.2538428,17.0969931 52.5446423,17.9165114 Z" id="Path-2" fill="url(#linearGradient-1)"></path>
            </g>
        </g>
    </g>
</svg>